<svg width="400" height="400" viewBox="0 0 400 400" fill="none" xmlns="http://www.w3.org/2000/svg">
<path d="M116.369 218.174H160.106V320.405C160.106 344.259 172.987 349.087 188.698 331.196L295.846 209.087C309.01 194.178 303.49 181.825 283.532 181.825H239.795V79.5943C239.795 55.7404 226.915 50.9128 211.203 68.8032L104.055 190.913C91.0328 205.963 96.553 218.174 116.369 218.174Z" fill="#F5AF02" fill-opacity="0.8"/>
<path d="M116.369 223.174H155.106V320.405C155.106 326.756 155.955 332.239 157.741 336.575C159.537 340.934 162.465 344.521 166.748 346.134C171.031 347.747 175.597 346.983 179.819 344.894C184.02 342.815 188.271 339.26 192.455 334.496L192.456 334.494L299.595 212.396C299.595 212.396 299.596 212.395 299.597 212.394C306.575 204.489 310.145 195.533 306.669 187.813C303.191 180.088 294.112 176.825 283.532 176.825H244.795V79.5943C244.795 73.2432 243.947 67.7611 242.16 63.4246C240.365 59.0656 237.437 55.4786 233.153 53.8655C228.87 52.2525 224.304 53.0168 220.082 55.1058C215.881 57.1842 211.63 60.7398 207.446 65.5039L207.445 65.5054L100.297 187.615L100.274 187.641C93.3789 195.61 89.8695 204.562 93.3412 212.246C96.822 219.95 105.864 223.174 116.369 223.174Z" stroke="#F5AF02" stroke-opacity="0.5" stroke-width="10" stroke-miterlimit="10" stroke-linecap="round" stroke-linejoin="round"/>
</svg>
